<svg width="2952" height="175" viewBox="0 0 2952 175" fill="none" xmlns="http://www.w3.org/2000/svg">
<path d="M1478.79 174V126.448H1476.92V95.9597H1473.54V88.1807H1465.04V68.6079H1459.42V55.8103H1462.42V52.9246H1442.17V33.7282H1436.17V26.0747H1438.17V13.528L1434.04 10.5168L1428.92 13.6535V26.2001H1431.17V33.7282H1425.92V20.4287H1411.42V33.7282H1407.79V108.13H1387.29V134.729H1381.92V141.253H1371.54V115.407V113.149H1368.92V107.252H1360.04V113.023H1356.29V110.012H1354.54V106.373L1350.67 104.115L1347.17 105.872L1344.17 104.115L1340.92 105.495V113.274H1339.29V141.63H1337.17V126.95H1334.42V95.8342H1331.17V89.059H1319.17V95.9597H1306.92V144.139H1301.29V126.574H1299.04V95.8342H1295.04V89.1845H1291.42V84.5422L1288.29 82.9111L1284.42 84.6677V88.1807H1280.29V95.8342H1273.04V97.5907H1270.04V113.149H1267.42V32.599H1263.17V29.2114H1253.42V20.4287H1247.92V15.0336L1243.42 12.6497L1238.92 14.9081V18.1703H1234.54V29.9642H1229.67V79.649H1220.04V87.6789H1212.42V78.0179L1194.67 88.6826H1190.42V116.787H1181.29V119.673H1176.29V125.821H1172.92V120.049H1161.92V141.253H1159.29V113.4H1157.42V95.9597H1155.29V83.413L1151.79 78.7707V70.3644L1148.54 68.7334L1144.92 70.7409V78.7707L1142.42 83.5385V75.2577H1129.79V83.413H1128.04V113.149H1126.04V126.323H1123.42V113.149H1122.04V95.8342H1118.67V89.4354H1106.29V95.8342L1094.04 95.7087V104.366L1091.92 105.746V113.149H1085.67V51.6699H1082.67V41.0052H1070.79V51.5444H1058.42V114.278H1054.29V70.4899H1055.42V67.6042H1050.92V58.1942H1046.04V52.4227L1041.04 50.1643L1036.54 52.2972V58.1942H1030.29V67.9806H1020.67V70.6154H1016.17V119.422H1013.42V95.7087H1008.54V91.4429H1010.42V84.5422L1007.04 82.6602L1003.29 84.5422V91.4429H1005.17V95.8342H1000.67V87.6789H995.792V53.1755H982.792V42.1344H970.417V53.1755H968.292V62.3346H959.917V72.2465H957.792V23.3144H949.667V10.8932L944.667 6L939.917 10.8932V23.4399H932.292V26.702H928.667V141.253H910.667V113.4H908.042V64.0911H904.542V61.5818H897.292V51.168H893.042V45.4588L889.792 43.0749L886.417 45.4588V52.5482H882.667V61.8327H877.542V145.895H874.417V115.282H875.167V113.149H872.167V107.377H862.792V113.149H857.542V107.064C857.542 107.064 857.104 104.115 853.854 104.115C850.604 104.115 850.229 106.06 850.229 106.06C850.229 106.06 849.604 104.24 846.291 104.24C843.416 104.24 843.166 107.064 843.166 107.064V113.274H841.041V115.031H842.166V159.32H838.416V115.031H839.541V113.274H836.666V107.126H827.541V112.521H821.916V106.248C821.916 106.248 821.291 104.24 818.416 104.24C815.853 104.24 814.916 106.248 814.916 106.248C814.916 106.248 814.416 104.177 811.478 104.177C809.228 104.177 808.165 106.122 808.165 106.122V113.149H806.665V141.379H804.042V56.9395H805.042V54.3047H800.917V44.5183H786.542V54.1792H772.042V141.379H765.792V97.7162H766.792V95.7087H763.292V88.4317H752.417V95.7087H747.667V91.5683H748.917V84.5422L745.667 82.5347L741.667 84.7931V91.6938H742.917V95.8342H738.792V173.875H1478.67" fill="#1D1D1B"/>
<path d="M2211.79 172.75V68.25H2216.54V57H2232.04V68.25H2238.29V56.75H2247.29V48.75H2262.54V56.75H2265.04V68.25H2269.79V88.75H2276.04V96.75H2279.79V141.75H2284.29V114.5H2286.54V106.75H2296.79V113.25H2299.29V107.5H2303.54V103.5H2313.04V114.25H2317.79V90.75H2334.54V110.75H2337.29V39.75H2341.29V19.5H2349.79V39.75H2353.04V141.5H2356.29V70.5H2359.29V60.75H2371.29V70.25H2375.79V55L2378.04 52.75L2380.92 55.625V70.25H2384.04V91.25H2389.29V100H2393.29V91.75H2399.79V85.75H2415.29V145H2424.04V140.25H2431.79V134.25H2445.04V141.75H2451.54V161.75H2459.79V142H2471.54V135.5H2478.29V120.75H2496.54V83.75H2500.79V79.75H2508.54V73.5H2514.29V68.75L2518.54 66.25L2521.29 68.75V63.5L2524.29 60.5L2528.04 63.75V126.75H2532.79V105.5H2549.79V114H2553.54V108H2563.54V96H2584.79V85.5H2607.29V96.25H2612.79V85.25L2616.54 82.5L2620.04 85.25V89.5H2632.29V96.5H2634.79V141.25H2640.04V55.5H2644.79V49.25H2642.79V38.75L2647.29 35.75L2651.54 38.75V49.25H2649.54V55.25H2655.79V44.75H2669.79V55.25H2673.29V58.75H2671.54V149.75H2674.79V114.25H2695.54V107.5H2704.79V114H2707.04V117.25H2705.54V163.5H2710.29V113.75H2730.29V108H2739.79V114H2747.54V63H2750.54V53.75H2754.54V46.75L2757.54 43.75L2760.67 46.875V52.25H2765.54V63H2776.54V114.25V146H2796.79V28.25H2800.29V24.625H2807.54V11H2811.54V3L2814.54 0L2818.17 3.625V11H2821.79V24.625H2825.79V73H2836.04V55.25H2838.79V43.75H2850.79V54.75H2854.54V37L2857.29 34.25L2860.17 37.125V54H2864.04V89.25H2868.79V96.75H2883.54V71.25H2899.29V58.75H2919.04V68.25H2924.29V123.75H2927.79V53.25H2939.04V41.75H2951.04V52.5V172.75C2951.04 172.75 2211.79 172.5 2211.79 172.75Z" fill="#1D1D1B"/>
<path d="M1473.79 173.334V47.334H1498.12V113.334H1507.46V101.334H1531.79V159.001H1538.12V95.334H1565.12V145.001H1574.46V27.667H1587.79V8H1601.46V27.333H1604.79V126H1608.12V89.333H1638.46V149H1646.12V141.667H1678.79V95.667H1709.79V140.667H1723.46V134.334H1739.12V140.334H1747.46V169.001H1753.79V127.001H1783.12V74.334H1800.12V64H1806.46V56.667H1815.46V73.334H1819.12V140.667H1828.46V133.334H1837.12V51H1863.79V54.333H1865.79V155.666H1890.79V112.666L1897.79 105.666H1918.46L1925.96 113.166V154.666H1930.46V81.333H1945.46V73H1959.46V80H1963.12V154H1968.46V101.667H1997.12V140.667H2004.79V83H2016.79V88.333H2030.79V140.333H2035.46V67H2052.46V57H2068.46V66.333H2071.79V151.666H2076.46V113H2106.13V125H2110.13V88H2138.46V164H2142.79V103.333H2175.46V143.666H2180.79V97H2192.12V88H2206.79V95.667H2210.79V141H2213.79V173.333C2213.79 173.333 1473.79 173.667 1473.79 173.334Z" fill="#1D1D1B"/>
<path d="M0 175V77.8141H7.66269V66.0438H19.9887V77.4771H32.6486V167.601H37.6458H42.9758V143.389H55.9685V135.991H69.294V142.38H74.624V129.938H95.945V122.54H104.607V128.929H109.937V88.9115H115.601V72.4339L118.932 69.7432L122.597 72.4339V86.8938H126.262V79.1589H142.336V87.0612H146.833V155.159H149.082V100.429H159.326V90.0878H174.818V98.4108H177.316V169.787H216.044V157.177H219.043V41.916H223.04V37.6284H230.536V23H239.281V25.0177H245.028V36.8717H249.026V128.677H257.271V121.615H266.516V117.832H282.757V165.501H291.502V112.536H301.996V103.708H316.488V111.023H320.735V169.788H328.731V86.81H337.726V74.4516H353.217V85.8012H355.716V129.434H362.212V111.527H368.958V100.177L373.456 97.403L377.204 100.177V110.266H390.196V135.739H393.195V71.1728H421.429V164.744H431.423V143.054H437.17V128.677H442.417V117.832H453.161V129.434H464.904V168.527H470.651V111.527H498.136V168.527H508.13V43.4293H520.373V24.0089H534.365V42.9249H537.613V168.779H540.112V111.779H570.595V165.248H580.089V156.421H596.58V160.456H608.823V171.554H614.07V110.77L622.69 102.069H638.307V153.142H645.053V162.726H680.783V169.788H686.03V142.801H699.772V135.739H713.514V141.036H719.011V85.2967H725.757V79.748H731.504H739V174.076C739 174.076 0.0829533 174.916 0 175Z" fill="#1D1D1B"/>
</svg>
