<svg width="214" height="108" viewBox="0 0 214 108" fill="none" xmlns="http://www.w3.org/2000/svg">
<path d="M158.182 40.3721H191.026C192.848 40.3721 194.653 40.7171 196.346 41.3891L202.932 44.002C206.715 45.503 209.199 49.161 209.199 53.231V84.675C209.199 86.963 207.344 88.8181 205.055 88.8181H86.98V62.0261L104.437 56.1541L158.182 40.3721Z" fill="#FAD13B"/>
<path d="M158.182 7.33984H115.24C115.24 7.33984 98.7701 31.5628 104.436 56.1538H108.634L112.304 64.2289H158.182V7.33984Z" fill="#FAD13B"/>
<path d="M125.272 60.1914L155.368 60.1914V8.80838L125.272 8.80838V60.1914Z" fill="#DBB734"/>
<path d="M146.621 57.7441H153.411V11.4991H146.621V57.7441Z" fill="#DCF5F1"/>
<path d="M127.353 32.8477H144.052V11.4997L127.353 11.4997V32.8477Z" fill="#DCF5F1"/>
<path d="M123.132 8.80762H115.975C115.975 8.80762 101.294 28.8996 105.331 54.2716H109.185L112.488 60.1906H123.132V8.80762Z" fill="#DCF5F1"/>
<mask id="mask0_394_628" style="mask-type:luminance" maskUnits="userSpaceOnUse" x="127" y="11" width="18" height="22">
<path d="M127.353 32.8477H144.052V11.4997L127.353 11.4997V32.8477Z" fill="white"/>
</mask>
<g mask="url(#mask0_394_628)">
<path d="M131.112 2.51599L128.36 4.10449L147.578 37.3901L150.33 35.8016L131.112 2.51599Z" fill="#EDFFFD"/>
<path d="M123.803 10.035L121.053 11.623L140.271 44.9086L143.021 43.3206L123.803 10.035Z" fill="#EDFFFD"/>
</g>
<mask id="mask1_394_628" style="mask-type:luminance" maskUnits="userSpaceOnUse" x="146" y="11" width="8" height="47">
<path d="M146.621 57.7441H153.411V11.4991H146.621V57.7441Z" fill="white"/>
</mask>
<g mask="url(#mask1_394_628)">
<path d="M143.641 1.95095L141.173 3.95215L165.384 33.8054L167.852 31.8042L143.641 1.95095Z" fill="#EDFFFD"/>
<path d="M137.606 10.5193L135.138 12.5205L159.349 42.3738L161.817 40.3726L137.606 10.5193Z" fill="#EDFFFD"/>
<path d="M137.838 23.7859L135.37 25.7871L159.581 55.6404L162.049 53.6392L137.838 23.7859Z" fill="#EDFFFD"/>
<path d="M131.803 32.3513L129.335 34.3525L153.546 64.2058L156.014 62.2046L131.803 32.3513Z" fill="#EDFFFD"/>
</g>
<mask id="mask2_394_628" style="mask-type:luminance" maskUnits="userSpaceOnUse" x="104" y="8" width="20" height="53">
<path d="M123.132 8.80762H115.975C115.975 8.80762 101.294 28.8996 105.331 54.2716H109.185L112.488 60.1906H123.132V8.80762Z" fill="white"/>
</mask>
<g mask="url(#mask2_394_628)">
<path d="M111.503 1.70388L109.036 3.70508L133.246 33.5583L135.714 31.5571L111.503 1.70388Z" fill="#EDFFFD"/>
<path d="M105.468 10.2713L103 12.2725L127.211 42.1257L129.679 40.1245L105.468 10.2713Z" fill="#EDFFFD"/>
<path d="M105.7 23.5388L103.233 25.54L127.444 55.3933L129.911 53.3921L105.7 23.5388Z" fill="#EDFFFD"/>
<path d="M99.6641 32.114L97.1965 34.1152L121.407 63.9685L123.875 61.9673L99.6641 32.114Z" fill="#EDFFFD"/>
</g>
<path d="M165.54 47.5254H184.614V43.3584H165.54V47.5254Z" fill="#FAD13B"/>
<mask id="mask3_394_628" style="mask-type:luminance" maskUnits="userSpaceOnUse" x="165" y="43" width="20" height="5">
<path d="M165.54 47.5254H184.614V43.3584H165.54V47.5254Z" fill="white"/>
</mask>
<g mask="url(#mask3_394_628)">
<path d="M185.345 48.248L186.191 47.9824L182.766 37.0675L181.92 37.3331L185.345 48.248Z" fill="black"/>
<path d="M183.728 48.7333L184.574 48.4678L181.149 37.5529L180.303 37.8184L183.728 48.7333Z" fill="black"/>
<path d="M182.064 49.2362L182.911 48.9707L179.487 38.0547L178.64 38.3201L182.064 49.2362Z" fill="black"/>
<path d="M180.462 49.7851L181.309 49.5195L177.883 38.6046L177.037 38.8702L180.462 49.7851Z" fill="black"/>
<path d="M178.804 50.2127L179.651 49.9473L176.227 39.0312L175.38 39.2967L178.804 50.2127Z" fill="black"/>
<path d="M177.202 50.7626L178.048 50.4971L174.623 39.5822L173.777 39.8477L177.202 50.7626Z" fill="black"/>
<path d="M175.538 51.2635L176.385 50.998L172.961 40.082L172.114 40.3475L175.538 51.2635Z" fill="black"/>
<path d="M173.906 51.8389L174.752 51.5732L171.326 40.6583L170.479 40.924L173.906 51.8389Z" fill="black"/>
<path d="M172.309 52.2656L173.155 52L169.73 41.0851L168.884 41.3507L172.309 52.2656Z" fill="black"/>
<path d="M170.675 52.7919L171.521 52.5264L168.096 41.6115L167.25 41.877L170.675 52.7919Z" fill="black"/>
<path d="M169.024 53.3564L169.87 53.0908L166.445 42.1759L165.599 42.4415L169.024 53.3564Z" fill="black"/>
<path d="M167.379 53.8682L168.225 53.6025L164.799 42.6876L163.953 42.9533L167.379 53.8682Z" fill="black"/>
</g>
<path d="M86.9807 83.5635L209.199 83.5635V66.6795L86.9807 66.6795V83.5635Z" fill="#DBB734"/>
<path d="M160.996 3.05762H107.411V7.33963H160.996V3.05762Z" fill="#FAD13B"/>
<path d="M157.264 2.04102H111.142V3.05801H157.264V2.04102Z" fill="#DBB734"/>
<path d="M157.264 0H111.142V2.04199H157.264V0Z" fill="#FAD13B"/>
<path d="M115.283 7.33984H158.182V8.13983H114.725L115.283 7.33984Z" fill="#DBB734"/>
<path d="M103.793 68.9189L116.966 68.9859C118.186 68.9919 118.988 70.2619 118.47 71.3659L118.262 71.8089C117.987 72.3959 117.397 72.7699 116.749 72.7699H103.792L103.793 68.9189Z" fill="#FAD13B"/>
<path d="M98.4132 65.0049H110.844V62.2889H98.4132V65.0049Z" fill="#FAD13B"/>
<mask id="mask4_394_628" style="mask-type:luminance" maskUnits="userSpaceOnUse" x="98" y="62" width="13" height="4">
<path d="M98.4132 65.0049H110.844V62.2889H98.4132V65.0049Z" fill="white"/>
</mask>
<g mask="url(#mask4_394_628)">
<path d="M111.323 65.4456L111.874 65.2725L109.641 58.1597L109.09 58.3328L111.323 65.4456Z" fill="black"/>
<path d="M110.268 65.802L110.82 65.6289L108.588 58.5161L108.036 58.6891L110.268 65.802Z" fill="black"/>
<path d="M109.203 66.1467L109.754 65.9736L107.522 58.8608L106.971 59.0339L109.203 66.1467Z" fill="black"/>
<path d="M108.138 66.4895L108.689 66.3164L106.457 59.2036L105.906 59.3766L108.138 66.4895Z" fill="black"/>
<path d="M107.064 66.8088L107.616 66.6357L105.384 59.5229L104.832 59.696L107.064 66.8088Z" fill="black"/>
<path d="M105.979 67.1224L106.531 66.9492L104.297 59.8364L103.746 60.0096L105.979 67.1224Z" fill="black"/>
<path d="M104.935 67.4943L105.486 67.3213L103.254 60.2085L102.703 60.3815L104.935 67.4943Z" fill="black"/>
<path d="M103.885 67.8117L104.436 67.6387L102.204 60.5258L101.653 60.6989L103.885 67.8117Z" fill="black"/>
<path d="M102.79 68.1019L103.341 67.9287L101.108 60.8159L100.556 60.989L102.79 68.1019Z" fill="black"/>
<path d="M101.746 68.4719L102.297 68.2988L100.065 61.186L99.5139 61.3591L101.746 68.4719Z" fill="black"/>
<path d="M100.695 68.7912L101.247 68.6182L99.0148 61.5053L98.4633 61.6784L100.695 68.7912Z" fill="black"/>
<path d="M99.6314 69.133L100.183 68.96L97.9508 61.8472L97.3994 62.0202L99.6314 69.133Z" fill="black"/>
</g>
<path d="M212.83 86.6531V84.7101C212.83 84.0551 212.299 83.5241 211.644 83.5241C211.104 83.5241 210.666 83.0861 210.666 82.5461V73.5591C210.666 72.7641 210.022 72.1201 209.227 72.1201H207.459C206.664 72.1201 206.02 72.7641 206.02 73.5591V86.4711H204.564L204.528 89.0971C204.519 89.7251 205.026 90.2381 205.653 90.2381H208.397H210.666H212.452C213.107 90.2381 213.638 89.7071 213.638 89.0521V86.6531H212.83Z" fill="#39291C"/>
<path d="M70.2929 50.2646L46.3879 58.9977L46.904 60.4596L71.019 51.8076L70.2929 50.2646Z" fill="#685952"/>
<path d="M45.029 60.0811L34.302 70.5451L35.219 71.5161L46.127 61.0081L45.029 60.0811Z" fill="#685952"/>
<path d="M97.0861 40.7373L69.8661 49.3563L71.6801 53.2123L94.3641 45.7273L99.5001 55.6793L68.7851 62.9033L42.8721 80.4333L44.2901 86.5573L49.0531 83.1553L71.3011 67.3593L101.622 59.7913L105.444 57.9763L97.0861 40.7373Z" fill="#FAD13B"/>
<path d="M71.4895 54.0929L72.335 53.7275L70.0861 48.5234L69.2406 48.8887L71.4895 54.0929Z" fill="#DBB734"/>
<path d="M95.443 47.9324C97.6836 47.9324 99.5 46.116 99.5 43.8754C99.5 41.6347 97.6836 39.8184 95.443 39.8184C93.2024 39.8184 91.386 41.6347 91.386 43.8754C91.386 46.116 93.2024 47.9324 95.443 47.9324Z" fill="#DBB734"/>
<path d="M95.4429 45.4283C96.3006 45.4283 96.9959 44.733 96.9959 43.8753C96.9959 43.0176 96.3006 42.3223 95.4429 42.3223C94.5852 42.3223 93.8899 43.0176 93.8899 43.8753C93.8899 44.733 94.5852 45.4283 95.4429 45.4283Z" fill="#685952"/>
<path d="M46.672 62.1732C47.9876 62.1732 49.054 61.1067 49.054 59.7912C49.054 58.4756 47.9876 57.4092 46.672 57.4092C45.3565 57.4092 44.29 58.4756 44.29 59.7912C44.29 61.1067 45.3565 62.1732 46.672 62.1732Z" fill="#DBB734"/>
<path d="M46.6719 60.7316C47.1911 60.7316 47.6119 60.3107 47.6119 59.7916C47.6119 59.2724 47.1911 58.8516 46.6719 58.8516C46.1528 58.8516 45.7319 59.2724 45.7319 59.7916C45.7319 60.3107 46.1528 60.7316 46.6719 60.7316Z" fill="#685952"/>
<path d="M69.8661 69.3416C72.1067 69.3416 73.9231 67.5252 73.9231 65.2845C73.9231 63.0439 72.1067 61.2275 69.8661 61.2275C67.6254 61.2275 65.8091 63.0439 65.8091 65.2845C65.8091 67.5252 67.6254 69.3416 69.8661 69.3416Z" fill="#DBB734"/>
<path d="M69.866 66.8375C70.7237 66.8375 71.419 66.1422 71.419 65.2845C71.419 64.4268 70.7237 63.7314 69.866 63.7314C69.0083 63.7314 68.313 64.4268 68.313 65.2845C68.313 66.1422 69.0083 66.8375 69.866 66.8375Z" fill="#685952"/>
<path d="M42.872 80.4335L38.882 79.6906L37.979 73.7466L31.437 66.4775H19.08H12.755L17.791 70.2176L7.995 98.6425L0 106.639H23.442L39.615 94.2805L39.797 89.1925L44.29 86.5576L42.872 80.4335Z" fill="#685952"/>
<path d="M42.0111 81.8816C42.2271 81.8816 42.4021 81.7065 42.4021 81.4906C42.4021 81.2747 42.2271 81.0996 42.0111 81.0996C41.7952 81.0996 41.6201 81.2747 41.6201 81.4906C41.6201 81.7065 41.7952 81.8816 42.0111 81.8816Z" fill="#FAD13B"/>
<path d="M43.4971 85.9496C43.4971 86.1656 43.3221 86.3406 43.1061 86.3406C42.8901 86.3406 42.7151 86.1656 42.7151 85.9496C42.7151 85.7336 42.8901 85.5586 43.1061 85.5586C43.3221 85.5576 43.4971 85.7326 43.4971 85.9496Z" fill="#FAD13B"/>
<path d="M33.7781 69.3828L34.9191 68.2178C35.6431 67.4938 36.8161 67.4938 37.5401 68.2178L37.6121 68.2898C38.3361 69.0138 38.3361 70.1868 37.6121 70.9108L36.3211 72.2018L33.7781 69.3828Z" fill="#685952"/>
<path d="M37.1309 68.8433C37.1309 68.9703 37.0279 69.0733 36.9009 69.0733C36.7739 69.0733 36.6709 68.9703 36.6709 68.8433C36.6709 68.7163 36.7739 68.6133 36.9009 68.6133C37.0279 68.6133 37.1309 68.7163 37.1309 68.8433Z" fill="#FAD13B"/>
<path d="M64.9261 84.1549C64.4381 84.0269 64.0891 83.5719 64.1151 83.0479L64.2271 80.7909C64.2531 80.2669 64.6451 79.8479 65.1441 79.7689C64.6891 79.5509 64.4321 79.0379 64.5571 78.5279L65.0931 76.3329C65.2181 75.8229 65.6821 75.4859 66.1861 75.5029C65.7801 75.2029 65.6251 74.6509 65.8441 74.1739L66.7861 72.1199C67.0051 71.6429 67.5241 71.3999 68.0161 71.5119C67.6741 71.1409 67.6261 70.5689 67.9311 70.1419L69.2441 68.3029C69.5491 67.8759 70.1051 67.7349 70.5671 67.9379C70.3011 67.5089 70.3631 66.9379 70.7431 66.5769L72.3801 65.0189C72.7601 64.6569 73.3331 64.6239 73.7481 64.9109C73.5681 64.4389 73.7361 63.8909 74.1781 63.6069L76.0801 62.3869C76.5221 62.1039 77.0901 62.1799 77.4441 62.5389C77.3571 62.0419 77.6251 61.5349 78.1131 61.3399L80.2111 60.5009C80.6981 60.3059 81.2421 60.4879 81.5221 60.9089C81.5301 60.4039 81.8901 59.9569 82.4051 59.8579L84.6241 59.4309C85.1391 59.3319 85.6391 59.6139 85.8341 60.0789C85.9381 59.5849 86.3751 59.2139 86.9001 59.2139H89.1601C89.7581 59.2139 90.2421 59.6949 90.2481 60.2909C90.2791 60.2939 90.3111 60.2949 90.3431 60.2979C90.4681 59.7159 91.0361 59.3409 91.6211 59.4579L93.8371 59.9029C94.3511 60.0059 94.7071 60.4559 94.7121 60.9609C94.9951 60.5429 95.5401 60.3649 96.0261 60.5639L98.1181 61.4189C98.6041 61.6179 98.8681 62.1269 98.7771 62.6229C99.1341 62.2659 99.7031 62.1939 100.142 62.4809L102.034 63.7159C102.473 64.0029 102.637 64.5529 102.454 65.0229C102.872 64.7399 103.444 64.7769 103.821 65.1419L105.446 66.7129C105.823 67.0779 105.88 67.6489 105.611 68.0759C106.075 67.8769 106.63 68.0219 106.931 68.4509L108.23 70.2999C108.531 70.7289 108.479 71.3009 108.134 71.6689C108.627 71.5609 109.145 71.8079 109.36 72.2869L110.286 74.3479C110.501 74.8269 110.342 75.3779 109.933 75.6749C110.437 75.6619 110.899 76.0029 111.02 76.5139L111.539 78.7129C111.66 79.2239 111.399 79.7349 110.942 79.9489C111.44 80.0319 111.829 80.4539 111.851 80.9779L111.945 83.2359C111.967 83.7599 111.614 84.2129 111.125 84.3369C111.598 84.5129 111.9 84.9999 111.823 85.5189L111.489 87.7539C111.411 88.2729 110.98 88.6509 110.476 88.6799C110.907 88.9419 111.112 89.4779 110.938 89.9729L110.187 92.1039C110.013 92.5989 109.517 92.8879 109.017 92.8219C109.391 93.1609 109.491 93.7259 109.226 94.1789L108.086 96.1299C107.821 96.5829 107.28 96.7739 106.801 96.6139C107.104 97.0169 107.095 97.5909 106.75 97.9859L105.262 99.6859C104.917 100.081 104.349 100.166 103.909 99.9179C104.131 100.371 104.014 100.933 103.6 101.255L101.817 102.643C101.403 102.965 100.83 102.941 100.445 102.615C100.577 103.102 100.356 103.632 99.8881 103.87L97.8751 104.896C97.4081 105.134 96.8491 105.003 96.5331 104.609C96.5711 105.112 96.2531 105.59 95.7491 105.736L93.5781 106.363C93.0741 106.509 92.5511 106.274 92.3141 105.828C92.2561 106.329 91.8541 106.739 91.3311 106.786L89.0811 106.992C88.5581 107.04 88.0891 106.71 87.9411 106.228C87.7891 106.709 87.3171 107.035 86.7951 106.983L84.5461 106.76C84.0241 106.708 83.6251 106.296 83.5711 105.794C83.3311 106.238 82.8061 106.469 82.3031 106.319L80.1371 105.675C79.6341 105.525 79.3211 105.045 79.3621 104.542C79.0421 104.933 78.4831 105.06 78.0171 104.818L76.0101 103.776C75.5441 103.534 75.3271 103.003 75.4631 102.517C75.0751 102.84 74.5021 102.859 74.0901 102.534L72.3181 101.132C71.9071 100.806 71.7941 100.244 72.0191 99.7919C71.5771 100.036 71.0101 99.9469 70.6681 99.5489L69.1931 97.8369C68.8511 97.4399 68.8461 96.8659 69.1531 96.4649C68.6731 96.6209 68.1331 96.4259 67.8721 95.9709L66.7471 94.0109C66.4861 93.5559 66.5901 92.9919 66.9671 92.6559C66.4661 92.7189 65.9731 92.4249 65.8031 91.9289L65.0691 89.7919C64.8991 89.2959 65.1071 88.7609 65.5411 88.5029C65.0381 88.4699 64.6091 88.0879 64.5351 87.5689L64.2181 85.3319C64.1451 84.8119 64.4511 84.3269 64.9261 84.1549Z" fill="#685952"/>
<path d="M90.1226 96.0261C97.2493 94.865 102.085 88.1464 100.924 81.0197C99.7632 73.893 93.0447 69.0569 85.918 70.218C78.7913 71.3791 73.9551 78.0976 75.1162 85.2243C76.2773 92.351 82.9959 97.1871 90.1226 96.0261Z" fill="#39291C"/>
<path d="M88.0292 75.5145C82.7902 75.5145 78.4732 79.4175 77.8012 84.4725C77.7412 84.0225 77.6992 83.5665 77.6992 83.1005C77.6992 77.3955 82.3242 72.7705 88.0292 72.7705C93.7342 72.7705 98.3592 77.3955 98.3592 83.1005C98.3592 83.5665 98.3172 84.0225 98.2572 84.4725C97.5852 79.4175 93.2682 75.5145 88.0292 75.5145Z" fill="#DBB734"/>
<path d="M88.0293 93.4307C82.7903 93.4307 78.4733 89.5277 77.8013 84.4727C78.4743 79.4177 82.7913 75.5146 88.0293 75.5146C93.2673 75.5146 97.5853 79.4177 98.2583 84.4727C97.5853 89.5277 93.2683 93.4307 88.0293 93.4307Z" fill="#FAD13B"/>
<path d="M88.0292 87.5125C90.4659 87.5125 92.4412 85.5371 92.4412 83.1005C92.4412 80.6638 90.4659 78.6885 88.0292 78.6885C85.5925 78.6885 83.6172 80.6638 83.6172 83.1005C83.6172 85.5371 85.5925 87.5125 88.0292 87.5125Z" fill="#39291C"/>
<path d="M150.633 81.943C150.078 81.798 149.681 81.28 149.711 80.684L149.838 78.118C149.867 77.522 150.314 77.046 150.88 76.956C150.362 76.708 150.071 76.125 150.212 75.545L150.822 73.049C150.964 72.469 151.492 72.086 152.065 72.105C151.604 71.764 151.427 71.136 151.676 70.594L152.747 68.259C152.996 67.717 153.586 67.44 154.146 67.567C153.757 67.145 153.703 66.495 154.05 66.009L155.543 63.918C155.89 63.432 156.522 63.273 157.048 63.503C156.746 63.015 156.816 62.366 157.248 61.955L159.109 60.184C159.541 59.773 160.192 59.735 160.665 60.061C160.461 59.525 160.652 58.901 161.154 58.579L163.316 57.191C163.818 56.869 164.465 56.955 164.867 57.364C164.768 56.799 165.073 56.222 165.627 56.001L168.013 55.047C168.567 54.826 169.185 55.033 169.503 55.51C169.512 54.936 169.921 54.428 170.507 54.315L173.03 53.829C173.616 53.716 174.184 54.037 174.406 54.566C174.524 54.004 175.021 53.582 175.618 53.582H178.187C178.866 53.582 179.417 54.129 179.424 54.807C179.46 54.81 179.496 54.812 179.532 54.815C179.674 54.154 180.32 53.726 180.985 53.86L183.504 54.365C184.089 54.482 184.494 54.994 184.499 55.568C184.821 55.093 185.441 54.891 185.993 55.116L188.371 56.088C188.923 56.314 189.224 56.893 189.12 57.457C189.526 57.051 190.173 56.97 190.672 57.296L192.823 58.7C193.322 59.026 193.508 59.651 193.3 60.186C193.775 59.864 194.426 59.907 194.855 60.321L196.702 62.107C197.131 62.522 197.195 63.171 196.89 63.656C197.417 63.43 198.049 63.594 198.391 64.083L199.867 66.186C200.21 66.674 200.15 67.324 199.758 67.743C200.318 67.62 200.907 67.901 201.151 68.446L202.203 70.79C202.447 71.334 202.266 71.961 201.802 72.298C202.376 72.283 202.901 72.671 203.038 73.251L203.628 75.751C203.765 76.332 203.469 76.913 202.949 77.156C203.515 77.25 203.957 77.73 203.982 78.326L204.089 80.893C204.114 81.489 203.713 82.004 203.157 82.145C203.695 82.344 204.039 82.899 203.95 83.489L203.57 86.03C203.482 86.62 202.991 87.05 202.418 87.083C202.909 87.381 203.141 87.99 202.943 88.553L202.09 90.976C201.892 91.539 201.329 91.868 200.76 91.792C201.185 92.177 201.299 92.819 200.998 93.334L199.702 95.552C199.401 96.067 198.786 96.284 198.241 96.102C198.586 96.56 198.576 97.213 198.183 97.662L196.491 99.595C196.098 100.044 195.453 100.14 194.953 99.859C195.205 100.375 195.072 101.013 194.601 101.38L192.574 102.958C192.103 103.325 191.452 103.297 191.014 102.927C191.164 103.481 190.913 104.083 190.381 104.354L188.092 105.521C187.561 105.792 186.926 105.642 186.566 105.195C186.609 105.767 186.248 106.311 185.675 106.476L183.207 107.189C182.634 107.355 182.039 107.087 181.77 106.581C181.704 107.151 181.247 107.616 180.653 107.671L178.095 107.905C177.501 107.959 176.967 107.584 176.799 107.036C176.626 107.583 176.089 107.954 175.496 107.895L172.939 107.641C172.345 107.582 171.892 107.113 171.83 106.543C171.557 107.048 170.96 107.31 170.388 107.14L167.926 106.407C167.354 106.237 166.998 105.691 167.045 105.119C166.682 105.563 166.046 105.708 165.516 105.433L163.236 104.248C162.707 103.973 162.46 103.369 162.614 102.817C162.173 103.184 161.521 103.206 161.053 102.836L159.038 101.242C158.57 100.872 158.442 100.232 158.698 99.719C158.196 99.996 157.551 99.895 157.162 99.443L155.485 97.496C155.096 97.044 155.09 96.392 155.439 95.936C154.893 96.113 154.28 95.892 153.983 95.374L152.704 93.146C152.407 92.629 152.525 91.987 152.954 91.606C152.385 91.677 151.824 91.344 151.63 90.779L150.795 88.349C150.601 87.785 150.839 87.177 151.331 86.883C150.759 86.845 150.271 86.412 150.187 85.821L149.827 83.277C149.745 82.69 150.093 82.138 150.633 81.943Z" fill="#685952"/>
<path d="M179.568 95.3507C187.646 93.8878 193.008 86.1535 191.545 78.0757C190.083 69.9979 182.348 64.6354 174.27 66.0983C166.193 67.5612 160.83 75.2954 162.293 83.3732C163.756 91.451 171.49 96.8135 179.568 95.3507Z" fill="#39291C"/>
<path d="M176.901 72.121C170.945 72.121 166.036 76.559 165.272 82.306C165.204 81.794 165.157 81.276 165.157 80.746C165.157 74.26 170.415 69.001 176.902 69.001C183.389 69.001 188.647 74.259 188.647 80.746C188.647 81.276 188.6 81.794 188.532 82.306C187.765 76.558 182.857 72.121 176.901 72.121Z" fill="#DBB734"/>
<path d="M176.901 92.4901C170.945 92.4901 166.036 88.0521 165.272 82.3051C166.037 76.5581 170.945 72.1201 176.901 72.1201C182.857 72.1201 187.766 76.5581 188.53 82.3051C187.765 88.0531 182.857 92.4901 176.901 92.4901Z" fill="#FAD13B"/>
<path d="M171.885 80.7455C171.885 83.5155 174.131 85.7615 176.901 85.7615C179.671 85.7615 181.917 83.5155 181.917 80.7455C181.917 77.9755 179.671 75.7295 176.901 75.7295C174.13 75.7295 171.885 77.9745 171.885 80.7455Z" fill="#39291C"/>
<path d="M45.7319 79.8922C48.7599 77.6702 51.8549 75.5482 54.9449 73.4182L59.6159 70.2751C61.1779 69.2351 62.751 68.2111 64.334 67.2021C62.817 68.3071 61.2899 69.3992 59.7509 70.4742L55.1209 73.6761C52.0099 75.7761 48.9049 77.8832 45.7319 79.8922Z" fill="white"/>
<path d="M71.946 49.5469C74.966 48.4379 78.023 47.4439 81.077 46.4399L85.677 44.9949C87.213 44.5219 88.756 44.0679 90.303 43.6299C88.791 44.1779 87.274 44.7099 85.751 45.2229L81.173 46.7359C78.107 47.7069 75.045 48.6839 71.946 49.5469Z" fill="white"/>
<path d="M68.312 75.6522C69.182 73.3092 70.499 71.1332 72.105 69.2082C73.712 67.2812 75.659 65.6272 77.849 64.3892C80.052 63.1952 82.464 62.3191 84.963 62.0511C86.198 61.7941 87.461 61.8791 88.711 61.8271C89.961 61.8661 91.201 62.0831 92.441 62.2021C91.193 62.1331 89.952 61.9672 88.708 61.9802C87.466 62.0542 86.212 61.9831 84.993 62.2571C82.521 62.5561 80.155 63.4582 78.002 64.6612C75.829 65.8492 73.882 67.4552 72.263 69.3422L71.104 70.8041C70.759 71.3211 70.377 71.8151 70.062 72.3521C69.382 73.3951 68.793 74.5002 68.312 75.6522Z" fill="white"/>
<path d="M154.501 71.4168C155.371 69.0738 156.688 66.8978 158.294 64.9728C159.901 63.0458 161.848 61.3918 164.038 60.1538C166.241 58.9598 168.653 58.0838 171.152 57.8158C172.387 57.5588 173.65 57.6438 174.9 57.5918C176.15 57.6308 177.39 57.8478 178.63 57.9668C177.382 57.8988 176.141 57.7318 174.897 57.7448C173.655 57.8188 172.401 57.7488 171.182 58.0218C168.71 58.3208 166.344 59.2228 164.191 60.4258C162.018 61.6138 160.071 63.2198 158.452 65.1068L157.294 66.5688C156.949 67.0858 156.567 67.5798 156.252 68.1168C155.571 69.1598 154.982 70.2648 154.501 71.4168Z" fill="white"/>
<path d="M159.976 41.8289C165.274 41.6949 170.572 41.7289 175.871 41.6729C181.169 41.7279 186.467 41.6939 191.766 41.8289C186.468 41.9639 181.169 41.9298 175.871 41.9848C170.572 41.9288 165.274 41.9639 159.976 41.8289Z" fill="white"/>
<path d="M207.433 65.4828C207.304 63.3138 207.295 61.1448 207.277 58.9748C207.295 56.8058 207.303 54.6368 207.433 52.4668C207.563 54.6358 207.571 56.8048 207.589 58.9748C207.57 61.1448 207.562 63.3138 207.433 65.4828Z" fill="white"/>
<path d="M128.09 45.4422H128.461C128.868 45.4422 129.198 45.1122 129.198 44.7042V36.5222C129.198 36.1152 128.868 35.7842 128.461 35.7842H128.09C127.683 35.7842 127.353 36.1142 127.353 36.5222V44.7042C127.353 45.1122 127.683 45.4422 128.09 45.4422Z" fill="#39291C"/>
<path d="M112.009 90.708H149.201V88.819H112.009V90.708Z" fill="#39291C"/>
<path d="M115.803 88.8193H145.409V86.9303H115.803V88.8193Z" fill="#39291C"/>
<path d="M182.773 33.8679V40.3729H177.1L177.649 30.7689C177.723 29.4759 178.462 28.3149 179.601 27.6999L188.53 22.8789L188.645 28.3839L184.674 30.6159C183.5 31.2769 182.773 32.5199 182.773 33.8679Z" fill="#39291C"/>
<path d="M141.479 61.1973V87.1763" stroke="#343436" stroke-width="0.502" stroke-miterlimit="10"/>
<path d="M135.672 61.1973V87.1763" stroke="#343436" stroke-width="0.502" stroke-miterlimit="10"/>
<path d="M141.479 84.5059H135.672" stroke="#343436" stroke-width="0.502" stroke-miterlimit="10"/>
<path d="M141.479 79.7227H135.672" stroke="#343436" stroke-width="0.502" stroke-miterlimit="10"/>
<path d="M141.479 74.6582H135.672" stroke="#343436" stroke-width="0.502" stroke-miterlimit="10"/>
<path d="M141.479 69.5947H135.672" stroke="#343436" stroke-width="0.502" stroke-miterlimit="10"/>
<path d="M141.479 64.5303H135.672" stroke="#343436" stroke-width="0.502" stroke-miterlimit="10"/>
<path d="M143.96 74.0449H144.481V68.8829H143.96V74.0449Z" fill="#39291C"/>
<path d="M143.787 68.8832C143.787 69.1232 143.981 69.3172 144.221 69.3172C144.461 69.3172 144.655 69.1232 144.655 68.8832C144.655 68.6432 144.461 68.4492 144.221 68.4492C143.981 68.4492 143.787 68.6432 143.787 68.8832Z" fill="#39291C"/>
<path d="M143.787 73.9799C143.787 74.2199 143.981 74.4139 144.221 74.4139C144.461 74.4139 144.655 74.2199 144.655 73.9799C144.655 73.7399 144.461 73.5459 144.221 73.5459C143.981 73.5459 143.787 73.7399 143.787 73.9799Z" fill="#39291C"/>
<path d="M124.06 60.1915H112.488L109.185 54.2725H103.251V56.5535H108.095L111.444 62.2025H124.06H156.297V60.1915H124.06Z" fill="#39291C"/>
</svg>
