<svg width="280" height="392" viewBox="0 0 280 392" fill="none" xmlns="http://www.w3.org/2000/svg">
<path d="M146.941 374.551C140.132 364.617 127.36 361.579 116.913 357.629C110.687 355.275 105.093 351.614 100.015 347.338C94.3685 342.583 87.8285 337.928 80.0975 338.173C80.0975 338.173 65.6895 345.824 74.4815 353.594C83.2735 361.364 95.5275 356.442 95.4115 364.465C95.2945 372.488 89.5395 381.658 106.413 384.609C123.286 387.56 124.901 391.26 124.901 391.26H162.094C159.768 389.802 157.535 388.261 155.62 386.522C152.046 383.279 149.641 378.491 146.941 374.551Z" fill="#E6B65E"/>
<path d="M64.8006 376.447C62.2976 367.756 56.0006 376.257 49.2716 370.874C46.2796 368.481 46.1795 364.801 46.9885 361.45C45.1985 362.608 43.3106 363.573 41.2736 364.239C33.3316 366.836 25.1606 368.13 19.6926 375.139C15.7326 380.215 13.4926 386.5 9.16455 391.261H73.4386C65.9206 386.531 66.7106 383.077 64.8006 376.447Z" fill="#F4CF8B"/>
<path d="M106.411 384.609C89.5383 381.658 95.2943 372.488 95.4103 364.465C95.5273 356.442 83.2723 361.364 74.4803 353.594C65.6883 345.824 80.0963 338.173 80.0963 338.173C65.6453 338.633 58.3623 354.092 46.9893 361.45C46.1803 364.8 46.2803 368.481 49.2723 370.874C56.0003 376.257 62.2973 367.755 64.8013 376.447C66.7113 383.078 65.9203 386.531 73.4413 391.261H124.899C124.899 391.261 123.283 387.56 106.411 384.609Z" fill="#F4C670"/>
<path d="M69.5278 347.594C69.5278 347.852 69.3178 348.062 69.0598 348.062C68.8018 348.062 68.5918 347.853 68.5918 347.594C68.5918 347.336 68.8018 347.126 69.0598 347.126C69.3188 347.126 69.5278 347.336 69.5278 347.594Z" fill="#E6B65E"/>
<path d="M91.3274 367.993C91.5858 367.993 91.7954 367.783 91.7954 367.525C91.7954 367.266 91.5858 367.057 91.3274 367.057C91.0689 367.057 90.8594 367.266 90.8594 367.525C90.8594 367.783 91.0689 367.993 91.3274 367.993Z" fill="#E6B65E"/>
<path d="M71.6384 367.524C71.8969 367.524 72.1064 367.315 72.1064 367.056C72.1064 366.798 71.8969 366.588 71.6384 366.588C71.3799 366.588 71.1704 366.798 71.1704 367.056C71.1704 367.315 71.3799 367.524 71.6384 367.524Z" fill="#E6B65E"/>
<path d="M52.9546 367.525C52.9546 367.783 52.7446 367.993 52.4866 367.993C52.2286 367.993 52.0186 367.784 52.0186 367.525C52.0186 367.267 52.2276 367.057 52.4866 367.057C52.7456 367.057 52.9546 367.267 52.9546 367.525Z" fill="#E6B65E"/>
<path d="M54.4997 362.915C54.7582 362.915 54.9677 362.705 54.9677 362.447C54.9677 362.188 54.7582 361.979 54.4997 361.979C54.2413 361.979 54.0317 362.188 54.0317 362.447C54.0317 362.705 54.2413 362.915 54.4997 362.915Z" fill="#E6B65E"/>
<path d="M87.5115 365.429C88.1632 365.429 88.6915 364.901 88.6915 364.249C88.6915 363.598 88.1632 363.069 87.5115 363.069C86.8598 363.069 86.3315 363.598 86.3315 364.249C86.3315 364.901 86.8598 365.429 87.5115 365.429Z" fill="#E6B65E"/>
<path d="M66.5895 349.242C66.5895 349.894 66.0615 350.422 65.4095 350.422C64.7575 350.422 64.2295 349.894 64.2295 349.242C64.2295 348.59 64.7575 348.062 65.4095 348.062C66.0615 348.063 66.5895 348.59 66.5895 349.242Z" fill="#E6B65E"/>
<path d="M102.869 387.846C102.869 388.498 102.341 389.026 101.689 389.026C101.037 389.026 100.509 388.498 100.509 387.846C100.509 387.194 101.037 386.666 101.689 386.666C102.341 386.666 102.869 387.194 102.869 387.846Z" fill="#E6B65E"/>
<path d="M72.8185 382.555C72.8185 383.207 72.2905 383.735 71.6385 383.735C70.9865 383.735 70.4585 383.207 70.4585 382.555C70.4585 381.903 70.9865 381.375 71.6385 381.375C72.2895 381.375 72.8185 381.903 72.8185 382.555Z" fill="#E6B65E"/>
<path d="M140.644 372.135C140.644 372.393 140.435 372.603 140.176 372.603C139.918 372.603 139.708 372.393 139.708 372.135C139.708 371.877 139.917 371.667 140.176 371.667C140.434 371.667 140.644 371.877 140.644 372.135Z" fill="#F4C670"/>
<path d="M103.336 379.469C103.336 379.727 103.127 379.937 102.868 379.937C102.61 379.937 102.4 379.727 102.4 379.469C102.4 379.211 102.609 379.001 102.868 379.001C103.127 379.001 103.336 379.211 103.336 379.469Z" fill="#F4C670"/>
<path d="M98.0024 348.062C98.0024 348.32 97.7934 348.53 97.5344 348.53C97.2764 348.53 97.0664 348.32 97.0664 348.062C97.0664 347.804 97.2754 347.594 97.5344 347.594C97.7924 347.594 98.0024 347.803 98.0024 348.062Z" fill="#F4C670"/>
<path d="M77.4504 345.236C77.7089 345.236 77.9184 345.027 77.9184 344.768C77.9184 344.51 77.7089 344.3 77.4504 344.3C77.1919 344.3 76.9824 344.51 76.9824 344.768C76.9824 345.027 77.1919 345.236 77.4504 345.236Z" fill="#F4C670"/>
<path d="M130.519 386.004C130.519 386.656 129.991 387.184 129.339 387.184C128.687 387.184 128.159 386.656 128.159 386.004C128.159 385.352 128.687 384.824 129.339 384.824C129.991 384.824 130.519 385.352 130.519 386.004Z" fill="#F4C670"/>
<path d="M87.5114 349.242C87.5114 349.894 86.9834 350.422 86.3314 350.422C85.6794 350.422 85.1514 349.894 85.1514 349.242C85.1514 348.59 85.6794 348.062 86.3314 348.062C86.9834 348.062 87.5114 348.59 87.5114 349.242Z" fill="#F4C670"/>
<path d="M111.905 363.626C112.556 363.626 113.085 363.098 113.085 362.446C113.085 361.794 112.556 361.266 111.905 361.266C111.253 361.266 110.725 361.794 110.725 362.446C110.725 363.098 111.253 363.626 111.905 363.626Z" fill="#F4C670"/>
<path d="M67.0576 388.051C67.0576 388.309 66.8486 388.52 66.5896 388.52C66.3316 388.52 66.1216 388.31 66.1216 388.051C66.1216 387.793 66.3316 387.583 66.5896 387.583C66.8486 387.583 67.0576 387.792 67.0576 388.051Z" fill="#F4C670"/>
<path d="M23.6399 388.369C23.8983 388.369 24.1079 388.16 24.1079 387.901C24.1079 387.643 23.8983 387.433 23.6399 387.433C23.3814 387.433 23.1719 387.643 23.1719 387.901C23.1719 388.16 23.3814 388.369 23.6399 388.369Z" fill="#F4C670"/>
<path d="M44.1589 366.215C44.4174 366.215 44.6269 366.006 44.6269 365.747C44.6269 365.489 44.4174 365.279 44.1589 365.279C43.9004 365.279 43.6909 365.489 43.6909 365.747C43.6909 366.006 43.9004 366.215 44.1589 366.215Z" fill="#F4C670"/>
<path d="M35.6496 385.382C35.9081 385.382 36.1176 385.173 36.1176 384.914C36.1176 384.656 35.9081 384.446 35.6496 384.446C35.3912 384.446 35.1816 384.656 35.1816 384.914C35.1816 385.173 35.3912 385.382 35.6496 385.382Z" fill="#F4C670"/>
<path d="M17.4627 385.789C18.1144 385.789 18.6427 385.261 18.6427 384.609C18.6427 383.958 18.1144 383.429 17.4627 383.429C16.811 383.429 16.2827 383.958 16.2827 384.609C16.2827 385.261 16.811 385.789 17.4627 385.789Z" fill="#F4C670"/>
<path d="M48.9168 381.747C49.5685 381.747 50.0968 381.219 50.0968 380.567C50.0968 379.916 49.5685 379.387 48.9168 379.387C48.2651 379.387 47.7368 379.916 47.7368 380.567C47.7368 381.219 48.2651 381.747 48.9168 381.747Z" fill="#F4C670"/>
<path d="M108.147 359.103H65.9419V368.323H108.147V359.103Z" fill="#FAD13B"/>
<mask id="mask0_394_35" style="mask-type:luminance" maskUnits="userSpaceOnUse" x="65" y="359" width="44" height="10">
<path d="M108.147 359.103H65.9419V368.323H108.147V359.103Z" fill="white"/>
</mask>
<g mask="url(#mask0_394_35)">
<path d="M71.9061 345.688L70.0342 345.1L62.4558 369.25L64.3277 369.838L71.9061 345.688Z" fill="black"/>
<path d="M75.5199 346.851L73.6479 346.263L66.0695 370.413L67.9415 371.001L75.5199 346.851Z" fill="black"/>
<path d="M79.1405 348.014L77.2686 347.426L69.6901 371.576L71.5621 372.164L79.1405 348.014Z" fill="black"/>
<path d="M82.7543 349.178L80.8823 348.59L73.3039 372.741L75.1759 373.328L82.7543 349.178Z" fill="black"/>
<path d="M86.348 350.175L84.4761 349.588L76.8977 373.738L78.7696 374.325L86.348 350.175Z" fill="black"/>
<path d="M89.9681 351.338L88.0962 350.751L80.5178 374.901L82.3897 375.489L89.9681 351.338Z" fill="black"/>
<path d="M93.5824 352.501L91.7104 351.914L84.132 376.064L86.004 376.652L93.5824 352.501Z" fill="black"/>
<path d="M97.1893 353.665L95.3174 353.078L87.739 377.228L89.6109 377.815L97.1893 353.665Z" fill="black"/>
<path d="M100.795 354.663L98.9233 354.076L91.3449 378.226L93.2169 378.813L100.795 354.663Z" fill="black"/>
<path d="M104.409 355.826L102.537 355.239L94.9587 379.389L96.8306 379.976L104.409 355.826Z" fill="black"/>
<path d="M108.016 356.99L106.144 356.403L98.5656 380.553L100.438 381.14L108.016 356.99Z" fill="black"/>
<path d="M111.63 358.153L109.758 357.565L102.179 381.716L104.051 382.303L111.63 358.153Z" fill="black"/>
</g>
<path d="M67.6557 287.301L50.4307 368.323" stroke="#343436" stroke-width="1.2638" stroke-miterlimit="10"/>
<path d="M106.854 287.301L124.078 368.323" stroke="#343436" stroke-width="1.2638" stroke-miterlimit="10"/>
<path d="M220.711 117.96V150.705" stroke="#343436" stroke-width="1.2638" stroke-miterlimit="10"/>
<path d="M225.053 146.363H216.369V155.047H225.053V146.363Z" fill="#FAD13B"/>
<mask id="mask1_394_35" style="mask-type:luminance" maskUnits="userSpaceOnUse" x="216" y="146" width="10" height="10">
<path d="M225.053 146.363H216.369V155.047H225.053V146.363Z" fill="white"/>
</mask>
<g mask="url(#mask1_394_35)">
<path d="M223.815 143.571L222.889 142.481L212.308 151.479L213.234 152.569L223.815 143.571Z" fill="black"/>
<path d="M225.552 145.693L224.627 144.604L214.044 153.601L214.969 154.69L225.552 145.693Z" fill="black"/>
<path d="M227.347 147.81L226.422 146.721L215.839 155.718L216.764 156.806L227.347 147.81Z" fill="black"/>
<path d="M229.113 149.928L228.187 148.839L217.604 157.835L218.53 158.924L229.113 149.928Z" fill="black"/>
</g>
<path d="M201.535 198.546L220.711 179.753L239.887 198.546" stroke="#343436" stroke-width="1.0765" stroke-miterlimit="10"/>
<path d="M209.205 198.546H201.535V204.332H209.205V198.546Z" fill="#F2882C"/>
<path d="M208.314 199.218H202.427V203.659H208.314V199.218Z" fill="#E07E29"/>
<path d="M216.875 198.546H209.205V204.332H216.875V198.546Z" fill="#F2882C"/>
<path d="M215.983 199.218H210.097V203.659H215.983V199.218Z" fill="#E07E29"/>
<path d="M224.546 198.546H216.876V204.332H224.546V198.546Z" fill="#F2882C"/>
<path d="M223.654 199.218H217.768V203.659H223.654V199.218Z" fill="#E07E29"/>
<path d="M232.216 198.546H224.546V204.332H232.216V198.546Z" fill="#F2882C"/>
<path d="M231.324 199.218H225.438V203.659H231.324V199.218Z" fill="#E07E29"/>
<path d="M239.886 198.546H232.216V204.332H239.886V198.546Z" fill="#F2882C"/>
<path d="M238.994 199.218H233.108V203.659H238.994V199.218Z" fill="#E07E29"/>
<path d="M220.711 154.859V204.81" stroke="#343436" stroke-width="1.2638" stroke-miterlimit="10"/>
<path d="M208.605 86.0152L87.0338 2.95215L14.4868 86.0152" stroke="#343436" stroke-width="1.2638" stroke-miterlimit="10"/>
<path d="M106.412 52.4272H67.6558V359.102H106.412V52.4272Z" stroke="#FAD13B" stroke-width="2.1531" stroke-miterlimit="10"/>
<path d="M67.6558 359.103L103.603 327.93L67.6558 298.442" stroke="#FAD13B" stroke-width="2.1531" stroke-miterlimit="10"/>
<path d="M67.6558 298.442L103.603 267.269L67.6558 237.781" stroke="#FAD13B" stroke-width="2.1531" stroke-miterlimit="10"/>
<path d="M67.6558 237.781L103.603 206.608L67.6558 177.12" stroke="#FAD13B" stroke-width="2.1531" stroke-miterlimit="10"/>
<path d="M67.6558 177.12L103.603 145.947L67.6558 116.458" stroke="#FAD13B" stroke-width="2.1531" stroke-miterlimit="10"/>
<path d="M67.6558 116.458L103.603 85.2854L67.6558 55.7974" stroke="#FAD13B" stroke-width="2.1531" stroke-miterlimit="10"/>
<path d="M105.008 359.103L69.0596 327.93L105.008 298.442" stroke="#FAD13B" stroke-width="2.1531" stroke-miterlimit="10"/>
<path d="M105.008 298.442L69.0596 267.269L105.008 237.781" stroke="#FAD13B" stroke-width="2.1531" stroke-miterlimit="10"/>
<path d="M105.008 237.781L69.0596 206.608L105.008 177.12" stroke="#FAD13B" stroke-width="2.1531" stroke-miterlimit="10"/>
<path d="M105.008 177.12L69.0596 145.947L105.008 116.458" stroke="#FAD13B" stroke-width="2.1531" stroke-miterlimit="10"/>
<path d="M105.008 116.458L69.0596 85.2854L105.008 55.7974" stroke="#FAD13B" stroke-width="2.1531" stroke-miterlimit="10"/>
<path d="M277.966 117.96H1.07666V86.2221L260.487 86.0151L277.966 117.96Z" stroke="#FAD13B" stroke-width="2.1531" stroke-miterlimit="10"/>
<path d="M1.07666 86.0151L27.7377 116.759L52.9587 86.0151" stroke="#FAD13B" stroke-width="2.1531" stroke-miterlimit="10"/>
<path d="M52.9585 86.0151L79.6195 116.759L104.84 86.0151" stroke="#FAD13B" stroke-width="2.1531" stroke-miterlimit="10"/>
<path d="M104.841 86.0151L131.503 116.759L156.723 86.0151" stroke="#FAD13B" stroke-width="2.1531" stroke-miterlimit="10"/>
<path d="M156.723 86.0151L183.385 116.759L208.605 86.0151" stroke="#FAD13B" stroke-width="2.1531" stroke-miterlimit="10"/>
<path d="M208.605 86.0151L235.267 116.759L260.487 86.0151" stroke="#FAD13B" stroke-width="2.1531" stroke-miterlimit="10"/>
<path d="M1.07666 117.96L27.7377 87.2163L52.9587 117.96" stroke="#FAD13B" stroke-width="2.1531" stroke-miterlimit="10"/>
<path d="M52.9585 117.96L79.6195 87.2163L104.84 117.96" stroke="#FAD13B" stroke-width="2.1531" stroke-miterlimit="10"/>
<path d="M104.841 117.96L131.503 87.2163L156.723 117.96" stroke="#FAD13B" stroke-width="2.1531" stroke-miterlimit="10"/>
<path d="M156.723 117.96L183.385 87.2163L208.605 117.96" stroke="#FAD13B" stroke-width="2.1531" stroke-miterlimit="10"/>
<path d="M208.605 117.96L235.267 87.2163L260.487 117.96" stroke="#FAD13B" stroke-width="2.1531" stroke-miterlimit="10"/>
<path d="M106.412 86.1689H67.6558V116.76H106.412V86.1689Z" fill="#FAD13B"/>
<mask id="mask2_394_35" style="mask-type:luminance" maskUnits="userSpaceOnUse" x="67" y="86" width="40" height="31">
<path d="M106.412 86.1689H67.6558V116.76H106.412V86.1689Z" fill="white"/>
</mask>
<g mask="url(#mask2_394_35)">
<path d="M96.8094 74.3999L93.2808 70.249L52.9473 104.537L56.476 108.688L96.8094 74.3999Z" fill="black"/>
<path d="M103.593 82.4687L100.064 78.3179L59.731 112.606L63.2597 116.757L103.593 82.4687Z" fill="black"/>
<path d="M110.377 90.539L106.849 86.3882L66.5152 120.676L70.0438 124.827L110.377 90.539Z" fill="black"/>
<path d="M117.161 98.6079L113.632 94.457L73.2989 128.745L76.8275 132.896L117.161 98.6079Z" fill="black"/>
</g>
<path d="M34.4025 119.083H10.2485V138.148H34.4025V119.083Z" fill="#FAD13B"/>
<mask id="mask3_394_35" style="mask-type:luminance" maskUnits="userSpaceOnUse" x="10" y="119" width="25" height="20">
<path d="M34.4025 119.083H10.2485V138.148H34.4025V119.083Z" fill="white"/>
</mask>
<g mask="url(#mask3_394_35)">
<path d="M28.4192 111.746L26.2202 109.16L1.08285 130.529L3.28179 133.116L28.4192 111.746Z" fill="black"/>
<path d="M32.647 116.788L30.4478 114.201L5.31039 135.574L7.50967 138.161L32.647 116.788Z" fill="black"/>
<path d="M36.8723 121.802L34.6733 119.216L9.53598 140.585L11.7349 143.172L36.8723 121.802Z" fill="black"/>
<path d="M41.1003 126.831L38.9014 124.245L13.764 145.614L15.9629 148.201L41.1003 126.831Z" fill="black"/>
</g>
<path d="M67.6558 52.4271L87.0338 2.95215L106.412 52.4271" stroke="#FAD13B" stroke-width="2.1531" stroke-miterlimit="10"/>
<path d="M64.8007 385.408C64.8007 388.64 62.1807 391.261 58.9477 391.261C55.7157 391.261 53.0947 388.641 53.0947 385.408C53.0947 382.175 55.7147 379.555 58.9477 379.555C62.1807 379.555 64.8007 382.176 64.8007 385.408Z" fill="black"/>
<path d="M62.1839 385.408C62.1839 387.195 60.7359 388.643 58.9489 388.643C57.1619 388.643 55.7139 387.194 55.7139 385.408C55.7139 383.621 57.1629 382.173 58.9489 382.173C60.7359 382.173 62.1839 383.621 62.1839 385.408Z" fill="white"/>
<path d="M52.4868 377.543V383.253C52.4868 384.154 53.0628 384.954 53.9178 385.239L58.2858 386.695C58.7158 386.838 59.1798 386.838 59.6098 386.695L63.9778 385.239C64.8328 384.954 65.4088 384.154 65.4088 383.253V377.543H52.4868Z" fill="#FAD13B"/>
<path d="M120.993 385.408C120.993 388.64 118.373 391.261 115.14 391.261C111.908 391.261 109.287 388.641 109.287 385.408C109.287 382.175 111.907 379.555 115.14 379.555C118.373 379.555 120.993 382.176 120.993 385.408Z" fill="black"/>
<path d="M118.376 385.408C118.376 387.195 116.927 388.643 115.141 388.643C113.354 388.643 111.906 387.194 111.906 385.408C111.906 383.621 113.355 382.173 115.141 382.173C116.927 382.173 118.376 383.621 118.376 385.408Z" fill="white"/>
<path d="M108.679 377.543V383.253C108.679 384.154 109.255 384.954 110.11 385.239L114.478 386.695C114.908 386.838 115.372 386.838 115.802 386.695L120.17 385.239C121.025 384.954 121.601 384.154 121.601 383.253V377.543H108.679Z" fill="#FAD13B"/>
<path d="M138.048 368.323H33.2104V377.543H138.048V368.323Z" fill="black"/>
<path d="M137.383 353.531H33.8394V368.323H137.383V353.531Z" stroke="#343436" stroke-width="1.3017" stroke-miterlimit="10"/>
<path d="M33.8394 368.323L42.2564 354.393L51.0974 368.323" stroke="#343436" stroke-width="1.2604" stroke-miterlimit="10"/>
<path d="M51.0972 368.323L59.5132 354.393L68.3542 368.323" stroke="#343436" stroke-width="1.2604" stroke-miterlimit="10"/>
<path d="M68.3545 368.323L76.7715 354.393L85.6115 368.323" stroke="#343436" stroke-width="1.2604" stroke-miterlimit="10"/>
<path d="M85.6113 368.323L94.0283 354.393L102.868 368.323" stroke="#343436" stroke-width="1.2604" stroke-miterlimit="10"/>
<path d="M102.868 368.323L111.285 354.393L120.126 368.323" stroke="#343436" stroke-width="1.2604" stroke-miterlimit="10"/>
<path d="M120.126 368.323L128.543 354.393L137.383 368.323" stroke="#343436" stroke-width="1.2604" stroke-miterlimit="10"/>
</svg>
